<?xml version="1.0" encoding="utf-8"?>
<svg version="1.1" xmlns="http://www.w3.org/2000/svg" xmlns:xlink="http://www.w3.org/1999/xlink" x="0px" y="0px" viewBox="0 0 1000 1000" enable-background="new 0 0 1000 1000" >
<metadata> Svg Vector Icons : http://www.onlinewebfonts.com/icon </metadata>
<g><path style="fill:white;stroke:white" d="M926.8,990.3H605.9c-33.8,0-61.8-27.4-61.8-61.1V611.1c0-33.8,28.1-66.7,61.8-66.7h320.9c33.7,0,63.2,32.9,63.2,66.7v318.1C990,963,960.5,990.3,926.8,990.3z M922.6,611.1H611.5v312.5h311.2V611.1z M926.8,456.3H605.9c-33.8,0-61.8-29.4-61.8-63.2V73.6c0-33.7,28.1-63.9,61.8-63.9h320.9c33.7,0,63.2,30.2,63.2,63.9v319.5C990,426.8,960.5,456.3,926.8,456.3z M922.6,77.7H611.5v311.2h311.2V77.7z M393.4,990.3H71.1C37.4,990.3,10,963,10,929.2V611.1c0-33.8,27.4-66.7,61.1-66.7h322.3c33.7,0,61.8,32.9,61.8,66.7v318.1C455.2,963,427.2,990.3,393.4,990.3z M388.5,611.1H76.7V923h311.9V611.1z M393.4,456.3H71.1c-33.8,0-61.1-29.4-61.1-63.2V73.6C10,39.8,37.4,9.7,71.1,9.7h322.3c33.7,0,61.8,30.2,61.8,63.9v319.5C455.2,426.8,427.2,456.3,393.4,456.3z"/></g>
</svg>